<svg viewBox="0 0 20 20" fill="none" xmlns="http://www.w3.org/2000/svg">
<g clip-path="url(#clip0_349_3628)">
<path d="M2.5 2.5L17.5 17.5" stroke="#9E9E9E" stroke-width="1.25" stroke-linecap="round" stroke-linejoin="round"/>
<path d="M3.33333 5.8335H5.83333M9.16667 5.8335H16.6667" stroke="#9E9E9E" stroke-width="1.25" stroke-linecap="round" stroke-linejoin="round"/>
<path d="M8.33333 9.1665V14.1665" stroke="#9E9E9E" stroke-width="1.25" stroke-linecap="round" stroke-linejoin="round"/>
<path d="M11.6667 11.6665V14.1665" stroke="#9E9E9E" stroke-width="1.25" stroke-linecap="round" stroke-linejoin="round"/>
<path d="M4.16667 5.8335L5 15.8335C5 16.2755 5.1756 16.6994 5.48816 17.012C5.80072 17.3246 6.22464 17.5002 6.66667 17.5002H13.3333C13.7754 17.5002 14.1993 17.3246 14.5118 17.012C14.8244 16.6994 15 16.2755 15 15.8335L15.0642 15.0643" stroke="#9E9E9E" stroke-width="1.25" stroke-linecap="round" stroke-linejoin="round"/>
<path d="M15.32 11.9777L15.8333 5.8335" stroke="#9E9E9E" stroke-width="1.25" stroke-linecap="round" stroke-linejoin="round"/>
<path d="M7.5 4.16667V3.33333C7.5 3.11232 7.5878 2.90036 7.74408 2.74408C7.90036 2.5878 8.11232 2.5 8.33333 2.5H11.6667C11.8877 2.5 12.0996 2.5878 12.2559 2.74408C12.4122 2.90036 12.5 3.11232 12.5 3.33333V5.83333" stroke="#9E9E9E" stroke-width="1.25" stroke-linecap="round" stroke-linejoin="round"/>
</g>
<defs>
<clipPath id="clip0_349_3628">
<rect width="20" height="20" fill="white"/>
</clipPath>
</defs>
</svg>
