<svg viewBox="0 0 21 21" fill="none" xmlns="http://www.w3.org/2000/svg">
<g clip-path="url(#clip0_349_3637)">
<path d="M11.375 16.6252L10.5 17.5002L3.9375 11.0007C3.50464 10.5795 3.16369 10.0732 2.9361 9.51377C2.70852 8.95432 2.59924 8.3538 2.61515 7.75003C2.63105 7.14627 2.77179 6.55233 3.02851 6.00564C3.28523 5.45894 3.65237 4.97131 4.1068 4.57347C4.56123 4.17563 5.09312 3.87619 5.66896 3.69401C6.2448 3.51183 6.85213 3.45085 7.4527 3.51492C8.05326 3.57898 8.63406 3.7667 9.15852 4.06626C9.68297 4.36581 10.1397 4.77072 10.5 5.25547C11.1962 4.32721 12.2326 3.71353 13.3813 3.54944C14.5299 3.38534 15.6967 3.68427 16.625 4.38047C17.5533 5.07666 18.1669 6.11309 18.331 7.26175C18.4951 8.41041 18.1962 9.57721 17.5 10.5055" stroke="#9E9E9E" stroke-width="1.25" stroke-linecap="round" stroke-linejoin="round"/>
<path d="M12.25 14H17.5" stroke="#9E9E9E" stroke-width="1.25" stroke-linecap="round" stroke-linejoin="round"/>
<path d="M14.875 11.375V16.625" stroke="#9E9E9E" stroke-width="1.25" stroke-linecap="round" stroke-linejoin="round"/>
</g>
<defs>
<clipPath id="clip0_349_3637">
<rect width="21" height="21" fill="white"/>
</clipPath>
</defs>
</svg>
