<svg width="32" height="32" viewBox="0 0 32 32" fill="none" xmlns="http://www.w3.org/2000/svg">
<path d="M9.75 22.5001C9.75 22.7473 9.67669 22.989 9.53933 23.1946C9.40198 23.4001 9.20676 23.5603 8.97835 23.6549C8.74994 23.7496 8.49861 23.7743 8.25613 23.7261C8.01366 23.6778 7.79093 23.5588 7.61611 23.384C7.4413 23.2092 7.32225 22.9864 7.27402 22.744C7.22578 22.5015 7.25054 22.2501 7.34515 22.0217C7.43976 21.7933 7.59997 21.5981 7.80553 21.4608C8.0111 21.3234 8.25277 21.2501 8.5 21.2501C8.83152 21.2501 9.14946 21.3818 9.38388 21.6162C9.6183 21.8506 9.75 22.1686 9.75 22.5001ZM28.75 19.5238V26.0001C28.75 26.4642 28.5656 26.9093 28.2374 27.2375C27.9092 27.5657 27.4641 27.7501 27 27.7501H8.5C8.18242 27.7503 7.86541 27.7231 7.5525 27.6688C6.1876 27.4195 4.97689 26.6401 4.18496 25.5008C3.39304 24.3615 3.08431 22.9551 3.32625 21.5888L6.45125 3.6976C6.49018 3.47089 6.57361 3.25414 6.69673 3.05984C6.81984 2.86554 6.98021 2.69754 7.16858 2.56553C7.35696 2.43352 7.5696 2.34011 7.79425 2.29069C8.0189 2.24127 8.25112 2.23682 8.4775 2.2776L15.3112 3.4926C15.7668 3.57483 16.1712 3.83423 16.436 4.214C16.7007 4.59376 16.8042 5.06296 16.7237 5.51885L15.14 14.5738L24.015 11.3551C24.4495 11.1981 24.9285 11.2194 25.3475 11.4142C25.7664 11.6091 26.0913 11.9617 26.2512 12.3951L28.6375 18.9226C28.7063 19.1159 28.7442 19.3188 28.75 19.5238ZM12.1162 23.1488L15.25 5.2601C15.2617 5.19551 15.2476 5.12889 15.2107 5.07463C15.1737 5.02037 15.1169 4.98282 15.0525 4.9701L8.215 3.7501H8.1725C8.12444 3.75035 8.07766 3.76565 8.03875 3.79385C8.01179 3.81283 7.98886 3.83697 7.97126 3.86486C7.95367 3.89275 7.94177 3.92384 7.93625 3.95635L4.81125 21.8476C4.63764 22.8227 4.85685 23.8269 5.42103 24.641C5.9852 25.455 6.84851 26.0128 7.8225 26.1926C8.29852 26.2776 8.78669 26.2674 9.25873 26.1625C9.73077 26.0575 10.1773 25.86 10.5725 25.5813C10.9777 25.2987 11.3226 24.9383 11.5872 24.5211C11.8517 24.104 12.0308 23.6383 12.1137 23.1513L12.1162 23.1488ZM13.1475 24.7951L27.0887 19.7501C27.1494 19.7279 27.1991 19.6831 27.2275 19.6251C27.241 19.5968 27.2486 19.566 27.2499 19.5346C27.2512 19.5032 27.2461 19.4719 27.235 19.4426L24.8487 12.9163C24.8254 12.8556 24.7793 12.8064 24.7203 12.7791C24.6612 12.7517 24.5939 12.7485 24.5325 12.7701L14.8412 16.2813L13.5912 23.4151C13.5082 23.8943 13.3589 24.3596 13.1475 24.7976V24.7951ZM27.25 21.2838L13.5437 26.2501H27C27.0663 26.2501 27.1299 26.2238 27.1768 26.1769C27.2237 26.13 27.25 26.0664 27.25 26.0001V21.2838Z" fill="#A25410"/>
</svg>
